<svg xmlns="http://www.w3.org/2000/svg" version="1.1" xmlns:xlink="http://www.w3.org/1999/xlink" xmlns:svgjs="http://svgjs.dev/svgjs" width="1920" height="1280" preserveAspectRatio="none" viewBox="0 0 1920 1280"><g mask="url(&quot;#SvgjsMask2010&quot;)" fill="none"><rect width="1920" height="1280" x="0" y="0" fill="url(&quot;#SvgjsLinearGradient2011&quot;)"></rect><path d="M89 1280L1369 0L2225.5 0L945.5 1280z" fill="url(&quot;#SvgjsLinearGradient2012&quot;)"></path><path d="M695.6 1280L1975.6 0L2592.1 0L1312.1 1280z" fill="url(&quot;#SvgjsLinearGradient2012&quot;)"></path><path d="M1832 1280L552 0L141 0L1421 1280z" fill="url(&quot;#SvgjsLinearGradient2013&quot;)"></path><path d="M1212.4 1280L-67.59999999999991 0L-319.5999999999999 0L960.4000000000001 1280z" fill="url(&quot;#SvgjsLinearGradient2013&quot;)"></path><path d="M1128.4778195335207 1280L1920 488.4778195335208L1920 1280z" fill="url(&quot;#SvgjsLinearGradient2012&quot;)"></path><path d="M0 1280L791.5221804664792 1280L 0 488.4778195335208z" fill="url(&quot;#SvgjsLinearGradient2013&quot;)"></path></g><defs><mask id="SvgjsMask2010"><rect width="1920" height="1280" fill="#ffffff"></rect></mask><linearGradient x1="91.67%" y1="-12.5%" x2="8.33%" y2="112.5%" gradientUnits="userSpaceOnUse" id="SvgjsLinearGradient2011"><stop stop-color="#0e2a47" offset="0"></stop><stop stop-color="rgba(0, 0, 0, 1)" offset="1"></stop></linearGradient><linearGradient x1="0%" y1="100%" x2="100%" y2="0%" id="SvgjsLinearGradient2012"><stop stop-color="rgba(15, 70, 185, 0.2)" offset="0"></stop><stop stop-opacity="0" stop-color="rgba(15, 70, 185, 0.2)" offset="0.66"></stop></linearGradient><linearGradient x1="100%" y1="100%" x2="0%" y2="0%" id="SvgjsLinearGradient2013"><stop stop-color="rgba(15, 70, 185, 0.2)" offset="0"></stop><stop stop-opacity="0" stop-color="rgba(15, 70, 185, 0.2)" offset="0.66"></stop></linearGradient></defs></svg>